<?xml version="1.0" encoding="UTF-8"?>
<svg width="700pt" height="700pt" version="1.1" viewBox="0 0 700 700" xmlns="http://www.w3.org/2000/svg" xmlns:xlink="http://www.w3.org/1999/xlink">
 <defs>
  <symbol id="w" overflow="visible">
   <path d="m3.6562-0.21875c-0.1875 0.09375-0.38672 0.16797-0.59375 0.21875-0.19922 0.050781-0.40625 0.078125-0.625 0.078125-0.66797 0-1.1992-0.17969-1.5938-0.54688-0.38672-0.375-0.57812-0.87891-0.57812-1.5156 0-0.64453 0.19141-1.1484 0.57812-1.5156 0.39453-0.375 0.92578-0.5625 1.5938-0.5625 0.21875 0 0.42578 0.027344 0.625 0.078125 0.20703 0.054687 0.40625 0.125 0.59375 0.21875v0.82812c-0.1875-0.125-0.375-0.21875-0.5625-0.28125-0.17969-0.0625-0.37109-0.09375-0.57812-0.09375-0.36719 0-0.65625 0.12109-0.875 0.35938-0.21094 0.23047-0.3125 0.55469-0.3125 0.96875 0 0.40625 0.10156 0.73047 0.3125 0.96875 0.21875 0.23047 0.50781 0.34375 0.875 0.34375 0.20703 0 0.39844-0.023437 0.57812-0.078125 0.1875-0.0625 0.375-0.16016 0.5625-0.29688z"/>
  </symbol>
  <symbol id="d" overflow="visible">
   <path d="m2.6875-2.1719c-0.085938-0.039063-0.16797-0.070313-0.25-0.09375-0.085938-0.019531-0.16797-0.03125-0.25-0.03125-0.25 0-0.44531 0.085937-0.57812 0.25-0.125 0.15625-0.1875 0.38281-0.1875 0.67188v1.375h-0.96875v-2.9844h0.96875v0.48438c0.11328-0.19531 0.25-0.33594 0.40625-0.42188 0.16406-0.09375 0.35938-0.14062 0.57812-0.14062h0.10938c0.039063 0 0.09375 0.007812 0.15625 0.015625z"/>
  </symbol>
  <symbol id="a" overflow="visible">
   <path d="m3.4375-1.5v0.26562h-2.2344c0.03125 0.23047 0.11328 0.40234 0.25 0.51562 0.13281 0.10547 0.32812 0.15625 0.57812 0.15625 0.20703 0 0.41406-0.023438 0.625-0.078125 0.20703-0.0625 0.42188-0.15625 0.64062-0.28125v0.73438c-0.21875 0.09375-0.44531 0.16406-0.67188 0.20312-0.23047 0.039062-0.45312 0.0625-0.67188 0.0625-0.54297 0-0.96484-0.13281-1.2656-0.40625-0.30469-0.28125-0.45312-0.67188-0.45312-1.1719 0-0.47656 0.14453-0.85938 0.4375-1.1406 0.30078-0.28125 0.70703-0.42188 1.2188-0.42188 0.46875 0 0.84375 0.14062 1.125 0.42188s0.42188 0.66406 0.42188 1.1406zm-0.96875-0.32812c0-0.17578-0.058594-0.31641-0.17188-0.42188-0.10547-0.11328-0.24219-0.17188-0.40625-0.17188-0.1875 0-0.33984 0.054687-0.45312 0.15625-0.11719 0.10547-0.1875 0.25-0.21875 0.4375z"/>
  </symbol>
  <symbol id="k" overflow="visible">
   <path d="m1.7969-1.3438c-0.19922 0-0.35156 0.039062-0.45312 0.10938-0.09375 0.0625-0.14062 0.16406-0.14062 0.29688 0 0.11719 0.035156 0.21094 0.10938 0.28125 0.082031 0.0625 0.19531 0.09375 0.34375 0.09375 0.17578 0 0.32812-0.0625 0.45312-0.1875s0.1875-0.28516 0.1875-0.48438v-0.10938zm1.4688-0.35938v1.7031h-0.96875v-0.4375c-0.125 0.17969-0.27344 0.30859-0.4375 0.39062-0.15625 0.082031-0.35156 0.125-0.57812 0.125-0.3125 0-0.57031-0.085938-0.76562-0.26562-0.1875-0.1875-0.28125-0.42188-0.28125-0.70312 0-0.35156 0.11719-0.61328 0.35938-0.78125 0.23828-0.16406 0.61719-0.25 1.1406-0.25h0.5625v-0.0625c0-0.15625-0.0625-0.26562-0.1875-0.32812-0.11719-0.070312-0.29688-0.10938-0.54688-0.10938-0.21094 0-0.40234 0.023437-0.57812 0.0625-0.17969 0.042969-0.33984 0.10156-0.48438 0.17188v-0.71875c0.19531-0.050781 0.39844-0.085938 0.60938-0.10938 0.20703-0.03125 0.41406-0.046875 0.625-0.046875 0.53906 0 0.92969 0.10938 1.1719 0.32812 0.23828 0.21094 0.35938 0.55469 0.35938 1.0312z"/>
  </symbol>
  <symbol id="c" overflow="visible">
   <path d="m1.5-3.8438v0.85938h0.98438v0.67188h-0.98438v1.2812c0 0.13672 0.023438 0.23047 0.078125 0.28125 0.0625 0.042969 0.17578 0.0625 0.34375 0.0625h0.48438v0.6875h-0.8125c-0.38672 0-0.65625-0.078125-0.8125-0.23438s-0.23438-0.42188-0.23438-0.79688v-1.2812h-0.46875v-0.67188h0.46875v-0.85938z"/>
  </symbol>
  <symbol id="j" overflow="visible">
   <path d="m2.5-2.5469v-1.6094h0.95312v4.1562h-0.95312v-0.4375c-0.13672 0.17969-0.28125 0.30859-0.4375 0.39062-0.15625 0.082031-0.33984 0.125-0.54688 0.125-0.375 0-0.68359-0.14453-0.92188-0.4375-0.23047-0.28906-0.34375-0.67188-0.34375-1.1406 0-0.45703 0.11328-0.83203 0.34375-1.125 0.23828-0.28906 0.54688-0.4375 0.92188-0.4375 0.19531 0 0.375 0.042969 0.53125 0.125 0.16406 0.085938 0.31641 0.21484 0.45312 0.39062zm-0.64062 1.9375c0.20703 0 0.36328-0.070313 0.46875-0.21875 0.11328-0.15625 0.17188-0.37891 0.17188-0.67188 0-0.28125-0.058594-0.49219-0.17188-0.64062-0.10547-0.15625-0.26172-0.23438-0.46875-0.23438-0.19922 0-0.35547 0.078125-0.46875 0.23438-0.10547 0.14844-0.15625 0.35938-0.15625 0.64062 0 0.29297 0.050781 0.51562 0.15625 0.67188 0.11328 0.14844 0.26953 0.21875 0.46875 0.21875z"/>
  </symbol>
  <symbol id="i" overflow="visible">
   <path d="m2.0469-0.60938c0.20703 0 0.36328-0.070313 0.46875-0.21875 0.11328-0.15625 0.17188-0.37891 0.17188-0.67188 0-0.28125-0.058594-0.49219-0.17188-0.64062-0.10547-0.15625-0.26172-0.23438-0.46875-0.23438-0.19922 0-0.35547 0.078125-0.46875 0.23438-0.10547 0.14844-0.15625 0.35938-0.15625 0.64062 0 0.29297 0.050781 0.51562 0.15625 0.67188 0.11328 0.14844 0.26953 0.21875 0.46875 0.21875zm-0.625-1.9375c0.125-0.17578 0.26562-0.30469 0.42188-0.39062 0.16406-0.082031 0.35156-0.125 0.5625-0.125 0.36328 0 0.66406 0.14844 0.90625 0.4375 0.23828 0.29297 0.35938 0.66797 0.35938 1.125 0 0.46875-0.12109 0.85156-0.35938 1.1406-0.24219 0.29297-0.54297 0.4375-0.90625 0.4375-0.21094 0-0.39844-0.042969-0.5625-0.125-0.15625-0.082031-0.29688-0.21094-0.42188-0.39062v0.4375h-0.96875v-4.1562h0.96875z"/>
  </symbol>
  <symbol id="h" overflow="visible">
   <path d="m0.0625-2.9844h0.95312l0.8125 2.0156 0.6875-2.0156h0.95312l-1.2656 3.2656c-0.125 0.33203-0.27344 0.56641-0.4375 0.70312-0.16797 0.13281-0.39062 0.20312-0.67188 0.20312h-0.54688v-0.64062h0.29688c0.16406 0 0.28516-0.027344 0.35938-0.078125 0.070313-0.054688 0.12891-0.14062 0.17188-0.26562l0.03125-0.09375z"/>
  </symbol>
  <symbol id="g" overflow="visible">
   <path d="m0.5-3.9844h1.0312v3.9844h-1.0312z"/>
  </symbol>
  <symbol id="f" overflow="visible">
   <path d="m2.875-2.8906v0.76562c-0.125-0.082031-0.25781-0.14453-0.39062-0.1875-0.13672-0.039062-0.27344-0.0625-0.40625-0.0625-0.27344 0-0.48047 0.078125-0.625 0.23438-0.14844 0.15625-0.21875 0.37109-0.21875 0.64062 0 0.28125 0.070313 0.5 0.21875 0.65625 0.14453 0.15625 0.35156 0.23438 0.625 0.23438 0.14453 0 0.28516-0.019531 0.42188-0.0625 0.13281-0.039063 0.25781-0.10938 0.375-0.20312v0.78125c-0.14844 0.0625-0.29688 0.10156-0.45312 0.125-0.15625 0.03125-0.3125 0.046875-0.46875 0.046875-0.54297 0-0.96484-0.13281-1.2656-0.40625-0.30469-0.28125-0.45312-0.67188-0.45312-1.1719 0-0.48828 0.14844-0.86719 0.45312-1.1406 0.30078-0.28125 0.72266-0.42188 1.2656-0.42188 0.15625 0 0.3125 0.015625 0.46875 0.046875 0.15625 0.023437 0.30469 0.0625 0.45312 0.125z"/>
  </symbol>
  <symbol id="b" overflow="visible">
   <path d="m1.875-2.375c-0.21094 0-0.37109 0.078125-0.48438 0.23438-0.10547 0.14844-0.15625 0.35938-0.15625 0.64062 0 0.29297 0.050781 0.51562 0.15625 0.67188 0.11328 0.14844 0.27344 0.21875 0.48438 0.21875 0.20703 0 0.36719-0.070313 0.48438-0.21875 0.11328-0.15625 0.17188-0.37891 0.17188-0.67188 0-0.28125-0.058594-0.49219-0.17188-0.64062-0.11719-0.15625-0.27734-0.23438-0.48438-0.23438zm0-0.6875c0.51953 0 0.92188 0.14062 1.2031 0.42188 0.28906 0.27344 0.4375 0.65234 0.4375 1.1406 0 0.5-0.14844 0.89062-0.4375 1.1719-0.28125 0.27344-0.68359 0.40625-1.2031 0.40625-0.51172 0-0.91406-0.13281-1.2031-0.40625-0.29297-0.28125-0.4375-0.67188-0.4375-1.1719 0-0.48828 0.14453-0.86719 0.4375-1.1406 0.28906-0.28125 0.69141-0.42188 1.2031-0.42188z"/>
  </symbol>
  <symbol id="e" overflow="visible">
   <path d="m3.4688-1.8281v1.8281h-0.96875v-1.3906c0-0.25781-0.007812-0.4375-0.015625-0.53125-0.011719-0.10156-0.03125-0.17578-0.0625-0.21875-0.03125-0.0625-0.085937-0.10938-0.15625-0.14062-0.0625-0.039062-0.13281-0.0625-0.20312-0.0625-0.21094 0-0.37109 0.078125-0.48438 0.23438-0.10547 0.15625-0.15625 0.37109-0.15625 0.64062v1.4688h-0.96875v-2.9844h0.96875v0.4375c0.13281-0.17578 0.28516-0.30469 0.45312-0.39062 0.16406-0.082031 0.34375-0.125 0.53125-0.125 0.34375 0 0.60156 0.10938 0.78125 0.32812 0.1875 0.21094 0.28125 0.51172 0.28125 0.90625z"/>
  </symbol>
  <symbol id="v" overflow="visible">
   <path d="m2.5-0.5c-0.13672 0.16797-0.28125 0.29297-0.4375 0.375-0.15625 0.085938-0.33984 0.125-0.54688 0.125-0.36719 0-0.66797-0.14062-0.90625-0.42188-0.24219-0.28906-0.35938-0.66016-0.35938-1.1094 0-0.44531 0.11719-0.8125 0.35938-1.0938 0.23828-0.28906 0.53906-0.4375 0.90625-0.4375 0.20703 0 0.39062 0.042969 0.54688 0.125 0.15625 0.085938 0.30078 0.21484 0.4375 0.39062v-0.4375h0.95312v2.6875c0 0.47656-0.15234 0.84375-0.45312 1.0938-0.30469 0.25781-0.74609 0.39062-1.3281 0.39062-0.17969 0-0.35547-0.015625-0.53125-0.046875-0.17969-0.03125-0.35547-0.078125-0.53125-0.14062v-0.73438c0.16406 0.09375 0.32812 0.16016 0.48438 0.20312 0.16406 0.050781 0.33203 0.078125 0.5 0.078125 0.3125 0 0.53906-0.070313 0.6875-0.20312 0.14453-0.13672 0.21875-0.34766 0.21875-0.64062zm-0.64062-1.875c-0.19922 0-0.35547 0.074219-0.46875 0.21875-0.10547 0.14844-0.15625 0.35547-0.15625 0.625 0 0.27344 0.050781 0.48047 0.15625 0.625 0.11328 0.14844 0.26953 0.21875 0.46875 0.21875 0.19531 0 0.35156-0.070312 0.46875-0.21875 0.11328-0.14453 0.17188-0.35156 0.17188-0.625 0-0.26953-0.058594-0.47656-0.17188-0.625-0.11719-0.14453-0.27344-0.21875-0.46875-0.21875z"/>
  </symbol>
  <symbol id="u" overflow="visible">
   <path d="m0.45312-4.1562h0.96875v2.2656l1.0938-1.0938h1.1094l-1.4531 1.3594 1.5625 1.625h-1.1562l-1.1562-1.25v1.25h-0.96875z"/>
  </symbol>
  <symbol id="t" overflow="visible">
   <path d="m1.5781-0.75h1.75v0.75h-2.8906v-0.75l1.4531-1.2969c0.125-0.11328 0.21875-0.22266 0.28125-0.32812 0.0625-0.11328 0.09375-0.23438 0.09375-0.35938 0-0.1875-0.0625-0.33594-0.1875-0.45312-0.125-0.11328-0.29297-0.17188-0.5-0.17188-0.15625 0-0.33594 0.039063-0.53125 0.10938-0.1875 0.0625-0.39062 0.16406-0.60938 0.29688v-0.875c0.23828-0.070313 0.46875-0.12891 0.6875-0.17188 0.22656-0.039062 0.45312-0.0625 0.67188-0.0625 0.47656 0 0.84766 0.10938 1.1094 0.32812 0.25781 0.21094 0.39062 0.5 0.39062 0.875 0 0.21094-0.058594 0.41406-0.17188 0.60938-0.10547 0.1875-0.33984 0.4375-0.70312 0.75z"/>
  </symbol>
  <symbol id="s" overflow="visible">
   <path d="m1.9844-1.9688c-0.1875 0-0.32812 0.058594-0.42188 0.17188-0.085938 0.11719-0.125 0.29297-0.125 0.53125 0 0.23047 0.039062 0.40625 0.125 0.53125 0.09375 0.11719 0.23438 0.17188 0.42188 0.17188 0.17578 0 0.30469-0.054688 0.39062-0.17188 0.09375-0.125 0.14062-0.30078 0.14062-0.53125 0-0.23828-0.046875-0.41406-0.14062-0.53125-0.085938-0.11328-0.21484-0.17188-0.39062-0.17188zm1.2656-1.9062v0.73438c-0.16797-0.082031-0.32812-0.14062-0.48438-0.17188-0.14844-0.039062-0.29297-0.0625-0.4375-0.0625-0.30469 0-0.54297 0.085938-0.71875 0.25-0.16797 0.16797-0.26562 0.41797-0.29688 0.75 0.125-0.082031 0.25391-0.14453 0.39062-0.1875 0.13281-0.039062 0.28516-0.0625 0.45312-0.0625 0.40625 0 0.73438 0.12109 0.98438 0.35938 0.25 0.23047 0.375 0.54297 0.375 0.9375 0 0.42969-0.14062 0.77344-0.42188 1.0312-0.28125 0.25-0.65625 0.375-1.125 0.375-0.52344 0-0.92188-0.17188-1.2031-0.51562-0.28125-0.35156-0.42188-0.85156-0.42188-1.5 0-0.65625 0.16016-1.1719 0.48438-1.5469 0.33203-0.375 0.78906-0.5625 1.375-0.5625 0.1875 0 0.36328 0.015625 0.53125 0.046875 0.17578 0.023438 0.34766 0.0625 0.51562 0.125z"/>
  </symbol>
  <symbol id="r" overflow="visible">
   <path d="m2.4219-4.1562v0.625h-0.51562c-0.13672 0-0.23438 0.027344-0.29688 0.078125-0.054687 0.054687-0.078125 0.13672-0.078125 0.25v0.21875h0.82812v0.67188h-0.82812v2.3125h-0.95312v-2.3125h-0.46875v-0.67188h0.46875v-0.21875c0-0.32031 0.085937-0.5625 0.26562-0.71875 0.1875-0.15625 0.47266-0.23438 0.85938-0.23438z"/>
  </symbol>
  <symbol id="q" overflow="visible">
   <path d="m3.2344-2.5c0.11328-0.17578 0.25391-0.3125 0.42188-0.40625 0.16406-0.10156 0.35156-0.15625 0.5625-0.15625 0.33203 0 0.58594 0.10938 0.76562 0.32812 0.1875 0.21094 0.28125 0.51172 0.28125 0.90625v1.8281h-0.96875v-1.5625c0.007813-0.019531 0.015625-0.039062 0.015625-0.0625v-0.10938c0-0.21875-0.03125-0.375-0.09375-0.46875s-0.16406-0.14062-0.29688-0.14062c-0.1875 0-0.33594 0.078125-0.4375 0.23438-0.09375 0.14844-0.14062 0.35938-0.14062 0.64062v1.4688h-0.96875v-1.5625c0-0.33203-0.03125-0.54688-0.09375-0.64062-0.054688-0.09375-0.15234-0.14062-0.29688-0.14062-0.17969 0-0.32031 0.078125-0.42188 0.23438-0.09375 0.14844-0.14062 0.35938-0.14062 0.64062v1.4688h-0.96875v-2.9844h0.96875v0.4375c0.11328-0.17578 0.24219-0.30469 0.39062-0.39062 0.15625-0.082031 0.32812-0.125 0.51562-0.125 0.20703 0 0.39062 0.054688 0.54688 0.15625 0.15625 0.09375 0.27344 0.23047 0.35938 0.40625z"/>
  </symbol>
  <symbol id="p" overflow="visible">
   <path d="m3.4688-1.8281v1.8281h-0.96875v-1.3906c0-0.25781-0.007812-0.4375-0.015625-0.53125-0.011719-0.10156-0.03125-0.17578-0.0625-0.21875-0.03125-0.0625-0.085937-0.10938-0.15625-0.14062-0.0625-0.039062-0.13281-0.0625-0.20312-0.0625-0.21094 0-0.37109 0.078125-0.48438 0.23438-0.10547 0.15625-0.15625 0.37109-0.15625 0.64062v1.4688h-0.96875v-4.1562h0.96875v1.6094c0.13281-0.17578 0.28516-0.30469 0.45312-0.39062 0.16406-0.082031 0.34375-0.125 0.53125-0.125 0.34375 0 0.60156 0.10938 0.78125 0.32812 0.1875 0.21094 0.28125 0.51172 0.28125 0.90625z"/>
  </symbol>
  <symbol id="o" overflow="visible">
   <path d="m0.5-3.9844h1.1562l1.4375 2.7344v-2.7344h0.98438v3.9844h-1.1562l-1.4375-2.7344v2.7344h-0.98438z"/>
  </symbol>
  <symbol id="n" overflow="visible">
   <path d="m0.42188-1.1719v-1.8125h0.96875v0.29688 0.60938 0.48438c0 0.24219 0.003906 0.41797 0.015625 0.53125 0.007812 0.10547 0.03125 0.17969 0.0625 0.21875 0.039062 0.0625 0.09375 0.11719 0.15625 0.15625 0.0625 0.03125 0.13281 0.046875 0.21875 0.046875 0.19531 0 0.35156-0.078125 0.46875-0.23438 0.11328-0.15625 0.17188-0.36719 0.17188-0.64062v-1.4688h0.95312v2.9844h-0.95312v-0.4375c-0.14844 0.17969-0.30469 0.30859-0.46875 0.39062-0.15625 0.082031-0.33594 0.125-0.53125 0.125-0.34375 0-0.60938-0.10156-0.79688-0.3125-0.17969-0.21875-0.26562-0.53125-0.26562-0.9375z"/>
  </symbol>
  <symbol id="m" overflow="visible">
   <path d="m0.5-3.9844h1.7031c0.50781 0 0.89844 0.11719 1.1719 0.34375 0.26953 0.21875 0.40625 0.53906 0.40625 0.95312 0 0.41797-0.13672 0.74219-0.40625 0.96875-0.27344 0.21875-0.66406 0.32812-1.1719 0.32812h-0.67188v1.3906h-1.0312zm1.0312 0.75v1.1094h0.5625c0.19531 0 0.34766-0.046875 0.45312-0.14062 0.11328-0.10156 0.17188-0.24219 0.17188-0.42188 0-0.17578-0.058594-0.3125-0.17188-0.40625-0.10547-0.09375-0.25781-0.14062-0.45312-0.14062z"/>
  </symbol>
  <symbol id="l" overflow="visible">
   <path d="m0.45312-2.9844h0.96875v2.9375c0 0.39453-0.10156 0.69531-0.29688 0.90625-0.1875 0.21875-0.46484 0.32812-0.82812 0.32812h-0.48438v-0.64062h0.17188c0.17578 0 0.29688-0.042969 0.35938-0.125 0.070312-0.074219 0.10938-0.23047 0.10938-0.46875zm0-1.1719h0.96875v0.78125h-0.96875z"/>
  </symbol>
 </defs>
 <g>
  <path d="m281.32 466.92c-4.7344 0-9.2812 1.8828-12.629 5.2305-3.3516 3.3516-5.2344 7.8945-5.2344 12.633 0 4.7383 1.8828 9.2812 5.2305 12.629 3.3516 3.3516 7.8945 5.2344 12.633 5.2344s9.2812-1.8828 12.633-5.2305c3.3477-3.3516 5.2305-7.8945 5.2305-12.633-0.003906-4.7344-1.8867-9.2773-5.2383-12.625-3.3477-3.3477-7.8867-5.2344-12.625-5.2383zm0 24.789c-2.8008 0-5.3242-1.6875-6.3984-4.2734-1.0703-2.5898-0.48047-5.5664 1.5-7.5508 1.9805-1.9805 4.9609-2.5703 7.5469-1.5 2.5898 1.0703 4.2773 3.5977 4.2773 6.3984-0.003906 3.8203-3.1016 6.918-6.9258 6.9219z"/>
  <path d="m418.69 466.92c-4.7383 0-9.2812 1.8828-12.633 5.2305-3.3477 3.3516-5.2305 7.8945-5.2305 12.633 0 4.7383 1.8789 9.2812 5.2305 12.629 3.3516 3.3516 7.8945 5.2344 12.633 5.2344 4.7344 0 9.2812-1.8828 12.629-5.2305 3.3516-3.3516 5.2344-7.8945 5.2344-12.633-0.007812-4.7344-1.8906-9.2773-5.2383-12.625s-7.8906-5.2344-12.625-5.2383zm0 24.789c-2.8008 0-5.3281-1.6875-6.3984-4.2734-1.0742-2.5898-0.48047-5.5664 1.5-7.5508 1.9805-1.9805 4.9609-2.5703 7.5469-1.5 2.5898 1.0703 4.2773 3.5977 4.2773 6.3984-0.007812 3.8203-3.1055 6.918-6.9258 6.9219z"/>
  <path d="m588.24 12.223c-6.6055-0.17188-162.29-3.7617-204.5 26.488-10.156 7.2734-20.234 34.441-24.664 47.676v-0.003907c-6.168-0.76562-12.41-0.75391-18.578 0.035157-4.8672-14.281-14.547-39.492-24.238-46.438-42.215-30.246-197.89-26.656-204.5-26.484-3.0195 0.039062-5.4375 2.5156-5.4023 5.5352 0.039062 3.0234 2.5195 5.4414 5.5391 5.4023h0.14062c0.39453-0.011719 40.34-0.98047 84.746 1.6562 57.992 3.4414 97.109 11.316 113.11 22.785 4.1758 2.9922 11.754 16.367 19.797 39.734-2.8008 0.79297-5.5469 1.7695-8.2188 2.9258-5.7812-4.9219-13.418-7.082-20.922-5.918-7.5039 1.1641-14.129 5.5352-18.152 11.977-4.0195 6.4414-5.0391 14.312-2.7891 21.566s7.543 13.168 14.504 16.203c2.1797 10.02 8.8594 18.73 18.426 25.016v-0.003906c-20.891 18.137-40.543 37.652-58.828 58.418-6.1094-0.58984-12.238-1.6406-13.918-2.4062-4.5234-4.0508-8.0391-15.133-11.148-24.926-3.1719-9.9922-6.1719-19.434-10.855-25.156-3.0898-3.7734-12.562-9.543-15.395-11.219l-0.003906-0.003907c-1.25-0.76953-2.7539-1.0039-4.1797-0.65625-1.4219 0.35156-2.6484 1.2617-3.3945 2.5234-0.75 1.2617-0.95703 2.7695-0.58203 4.1875s1.3047 2.625 2.5781 3.3516c5.0273 2.9805 11.254 7.2031 12.512 8.7422 3.3555 4.0977 6.1719 12.961 8.8945 21.535 3.7812 11.91 7.6914 24.227 14.73 30.156 1.8984 1.6016 5.9688 2.8867 12.141 3.8438-6.5039 7.6953-13.086 15.871-19.598 24.492-26.496 35.07-46.664 70.441-59.949 105.13-16.703 43.617-22.512 86.273-17.27 126.79 2.3945 18.484 11.227 33.277 26.25 43.969 20.402 14.512 48.48 18.801 72.316 18.801l0.003906-0.003906c12 0.058594 23.98-1.0664 35.762-3.3516 13.699-2.8555 27.07-10.043 39.742-21.367 14.191-12.742 22.27-30.934 22.207-50.004l-0.53906-302.62c1.9414 0.14844 3.9102 0.23047 5.9062 0.23047 0.20703 0 0.41406-0.007812 0.62109-0.011719l-0.53906 302.41c-0.0625 19.074 8.0195 37.266 22.211 50.008 12.672 11.324 26.043 18.516 39.742 21.367 11.785 2.2852 23.762 3.4062 35.766 3.3516 23.832 0 51.914-4.2891 72.312-18.801 15.027-10.691 23.859-25.484 26.25-43.969 5.2383-40.496-0.34766-83.137-16.609-126.74-12.934-34.688-32.617-70.055-58.508-105.13-6.3867-8.6562-12.848-16.863-19.227-24.586 6.0078-0.95312 9.9844-2.2227 11.852-3.7969 7.043-5.9336 10.953-18.25 14.734-30.16 2.7227-8.5703 5.5352-17.434 8.8945-21.535 1.2539-1.5312 7.4844-5.7578 12.512-8.7422l0.003906 0.003906c2.5391-1.5664 3.3555-4.8789 1.832-7.4453-1.5234-2.5664-4.8203-3.4375-7.4102-1.9609-2.832 1.6797-12.309 7.4492-15.395 11.219-4.6875 5.7188-7.6836 15.16-10.855 25.156-3.1094 9.793-6.625 20.875-11.148 24.926-1.6328 0.74219-7.4883 1.75-13.441 2.3555h-0.007813c-17.676-20.523-36.691-39.852-56.926-57.859 10.105-6.4062 17.109-15.48 19.234-25.957h0.003906c6.7188-3.2578 11.723-9.2383 13.746-16.43 2.0234-7.1914 0.87109-14.902-3.1641-21.188s-10.57-10.543-17.949-11.691c-7.3828-1.1523-14.902 0.91016-20.66 5.668-2.5742-1.0859-5.2109-2.0078-7.9023-2.7578 6.1953-18.188 14.602-36.91 20.215-40.93 39.254-28.125 196.28-24.48 197.86-24.445h0.003906c3.0195 0.078125 5.5312-2.3086 5.6055-5.3281 0.078125-3.0195-2.3086-5.5312-5.3281-5.6094zm-298.87 99.203c0-4.0273 1.6016-7.8906 4.4492-10.738 2.8477-2.8477 6.7109-4.4492 10.738-4.4492s7.8906 1.6016 10.742 4.4492c2.8477 2.8477 4.4453 6.7109 4.4453 10.738 0 4.0273-1.5977 7.8906-4.4453 10.738-2.8516 2.8477-6.7148 4.4492-10.742 4.4492-4.0273-0.003906-7.8867-1.6055-10.734-4.4531s-4.4492-6.707-4.4531-10.734zm-113.67 251.01c12.891-33.703 32.523-68.148 58.355-102.38h0.003906c26.195-34.508 56.02-66.105 88.957-94.25 3.2656 1.3047 6.625 2.3516 10.055 3.1328l0.39844 222.63c-5.4258 5.1289-7.6875 12.012-9.7109 18.18-2.8906 8.8086-5.0234 14.328-12.16 16.773-7.1406 2.4453-12.211-0.61328-19.891-5.7969-7.5312-5.0859-16.902-11.414-29.555-7.082-12.652 4.332-16.18 15.078-19.012 23.711-2.8906 8.8086-5.0234 14.328-12.16 16.773-7.1406 2.4453-12.211-0.60937-19.895-5.7969-7.5312-5.0859-16.902-11.414-29.559-7.0781-12.656 4.332-16.18 15.078-19.012 23.711h-0.003907c-1.0234 3.6328-2.4648 7.1367-4.2969 10.441-3.2305-36.16 2.6289-74.121 17.484-112.97zm139.35 152.64c-11.223 10.027-22.891 16.359-34.684 18.812-24.973 5.1992-72.078 5.8555-99.504-13.656-10.664-7.3477-18.113-18.496-20.816-31.16 7.7578-5.168 10.449-13.359 12.855-20.695 2.8906-8.8086 5.0234-14.328 12.164-16.773 7.1406-2.4453 12.211 0.60938 19.895 5.7969 7.5312 5.0859 16.902 11.414 29.559 7.082s16.176-15.078 19.012-23.711c2.8867-8.8086 5.0195-14.328 12.164-16.773 7.1406-2.4453 12.211 0.61328 19.891 5.7969 7.5312 5.082 16.902 11.414 29.555 7.082 11.723-4.0156 15.609-13.531 18.367-21.777l0.10547 58.141v-0.003907c0.058594 15.953-6.6953 31.176-18.562 41.84zm198.63 5.1641c-27.426 19.512-74.531 18.855-99.504 13.656-11.797-2.457-23.465-8.7891-34.684-18.812v-0.003907c-11.871-10.66-18.625-25.883-18.566-41.836l0.10938-59.016c2.7852 8.4336 6.5195 18.492 18.66 22.652 12.656 4.332 22.027-2 29.555-7.082 7.6797-5.1875 12.75-8.2461 19.891-5.7969 7.1406 2.4492 9.2734 7.9648 12.164 16.773 2.832 8.6328 6.3594 19.379 19.012 23.711s22.027-1.9961 29.559-7.082c7.6836-5.1875 12.758-8.2422 19.895-5.7969s9.2734 7.9688 12.164 16.773c2.3789 7.2539 5.043 15.34 12.598 20.52-2.6719 12.734-10.141 23.953-20.852 31.336zm-51.164-260.23c25.242 34.23 44.406 68.676 56.953 102.38 14.418 38.711 20.074 76.539 16.895 112.59-1.6914-3.1875-3.043-6.5469-4.0391-10.016-2.832-8.6328-6.3594-19.379-19.016-23.711-12.656-4.332-22.027 1.9961-29.559 7.0781-7.6836 5.1875-12.754 8.2422-19.895 5.7969-7.1406-2.4453-9.2734-7.9648-12.164-16.773-2.832-8.6328-6.3555-19.379-19.012-23.711-12.652-4.332-22.027 1.9961-29.555 7.082-7.6836 5.1875-12.754 8.2461-19.891 5.7969-7.1406-2.4492-9.2734-7.9688-12.164-16.773-2.0586-6.2734-4.3672-13.285-10-18.441l0.40234-221.34c4.9609-0.73828 9.832-2.0117 14.52-3.8008 32.098 28.113 61.105 59.574 86.523 93.848zm-68.109-163.78c4.0273 0 7.8906 1.6016 10.738 4.4492s4.4492 6.7109 4.4492 10.738c0 4.0273-1.6016 7.8906-4.4492 10.742-2.8477 2.8477-6.7109 4.4453-10.738 4.4453-4.0312 0-7.8906-1.5977-10.742-4.4492-2.8477-2.8477-4.4453-6.7109-4.4453-10.738 0.003906-4.0273 1.6055-7.8867 4.4531-10.734s6.707-4.4492 10.734-4.4531zm-23.625 4.0547c-3.7539 7.957-3.25 17.266 1.3398 24.766 4.5898 7.5039 12.648 12.191 21.438 12.469-5.7578 12.984-23.285 22.371-43.641 22.371-20.332 0-37.91-9.418-43.664-22.41 8.5742-0.55078 16.328-5.2852 20.734-12.66 4.4062-7.3711 4.9023-16.441 1.3242-24.254 13.699-4.9922 28.703-5.0938 42.469-0.28125z"/>
  <use x="70" y="576.40625" xlink:href="#w"/>
  <use x="74.011719" y="576.40625" xlink:href="#d"/>
  <use x="76.710938" y="576.40625" xlink:href="#a"/>
  <use x="80.417969" y="576.40625" xlink:href="#k"/>
  <use x="84.109375" y="576.40625" xlink:href="#c"/>
  <use x="86.722656" y="576.40625" xlink:href="#a"/>
  <use x="90.433594" y="576.40625" xlink:href="#j"/>
  <use x="96.25" y="576.40625" xlink:href="#i"/>
  <use x="100.167969" y="576.40625" xlink:href="#h"/>
  <use x="105.636719" y="576.40625" xlink:href="#g"/>
  <use x="107.667969" y="576.40625" xlink:href="#f"/>
  <use x="110.910156" y="576.40625" xlink:href="#b"/>
  <use x="114.667969" y="576.40625" xlink:href="#e"/>
  <use x="118.5625" y="576.40625" xlink:href="#v"/>
  <use x="122.476562" y="576.40625" xlink:href="#a"/>
  <use x="126.183594" y="576.40625" xlink:href="#a"/>
  <use x="129.894531" y="576.40625" xlink:href="#u"/>
  <use x="133.53125" y="576.40625" xlink:href="#t"/>
  <use x="137.335938" y="576.40625" xlink:href="#s"/>
  <use x="70" y="581.875" xlink:href="#r"/>
  <use x="72.378906" y="581.875" xlink:href="#d"/>
  <use x="75.078125" y="581.875" xlink:href="#b"/>
  <use x="78.832031" y="581.875" xlink:href="#q"/>
  <use x="86.4375" y="581.875" xlink:href="#c"/>
  <use x="89.050781" y="581.875" xlink:href="#p"/>
  <use x="92.941406" y="581.875" xlink:href="#a"/>
  <use x="98.554688" y="581.875" xlink:href="#o"/>
  <use x="103.132812" y="581.875" xlink:href="#b"/>
  <use x="106.890625" y="581.875" xlink:href="#n"/>
  <use x="110.785156" y="581.875" xlink:href="#e"/>
  <use x="116.582031" y="581.875" xlink:href="#m"/>
  <use x="120.589844" y="581.875" xlink:href="#d"/>
  <use x="123.285156" y="581.875" xlink:href="#b"/>
  <use x="127.042969" y="581.875" xlink:href="#l"/>
  <use x="128.917969" y="581.875" xlink:href="#a"/>
  <use x="132.625" y="581.875" xlink:href="#f"/>
  <use x="135.867188" y="581.875" xlink:href="#c"/>
 </g>
</svg>
