<?xml version="1.0" encoding="UTF-8" standalone="no"?>
<!DOCTYPE svg PUBLIC "-//W3C//DTD SVG 1.1//EN" "http://www.w3.org/Graphics/SVG/1.1/DTD/svg11.dtd">
<svg width="100%" height="100%" viewBox="0 0 700 700" version="1.1" xmlns="http://www.w3.org/2000/svg" xmlns:xlink="http://www.w3.org/1999/xlink" xml:space="preserve" xmlns:serif="http://www.serif.com/" style="fill-rule:evenodd;clip-rule:evenodd;stroke-linejoin:round;stroke-miterlimit:2;">
    <g>
        <g transform="matrix(1.30592,0,0,1.30592,-107.246,-17.1585)">
            <path d="M281.32,466.92C276.586,466.92 272.039,468.803 268.691,472.151C265.339,475.502 263.457,480.045 263.457,484.784C263.457,489.522 265.339,494.065 268.687,497.413C272.039,500.764 276.582,502.647 281.32,502.647C286.059,502.647 290.601,500.764 293.953,497.416C297.301,494.065 299.184,489.522 299.184,484.783C299.18,480.049 297.297,475.506 293.945,472.158C290.598,468.811 286.059,466.924 281.32,466.92L281.32,466.92ZM281.32,491.709C278.519,491.709 275.996,490.022 274.922,487.436C273.851,484.846 274.441,481.869 276.422,479.885C278.402,477.904 281.383,477.315 283.969,478.385C286.558,479.455 288.246,481.983 288.246,484.783C288.242,488.604 285.144,491.701 281.32,491.705L281.32,491.709Z" style="fill-rule:nonzero;"/>
        </g>
        <g transform="matrix(1.30592,0,0,1.30592,-107.246,-17.1585)">
            <path d="M418.69,466.92C413.952,466.92 409.409,468.803 406.057,472.151C402.709,475.502 400.827,480.045 400.827,484.784C400.827,489.522 402.705,494.065 406.057,497.413C409.409,500.764 413.952,502.647 418.69,502.647C423.424,502.647 427.971,500.764 431.319,497.416C434.671,494.065 436.553,489.522 436.553,484.783C436.546,480.049 434.663,475.506 431.315,472.158C427.967,468.811 423.425,466.924 418.69,466.92L418.69,466.92ZM418.69,491.709C415.889,491.709 413.362,490.022 412.292,487.436C411.217,484.846 411.811,481.869 413.792,479.885C415.772,477.904 418.753,477.315 421.339,478.385C423.928,479.455 425.616,481.983 425.616,484.783C425.608,488.604 422.51,491.701 418.69,491.705L418.69,491.709Z" style="fill-rule:nonzero;"/>
        </g>
        <g transform="matrix(1.30592,0,0,1.30592,-107.246,-17.1585)">
            <path d="M588.24,12.223C581.635,12.051 425.95,8.461 383.74,38.711C373.584,45.984 363.506,73.152 359.076,86.387L359.076,86.383C352.908,85.617 346.666,85.629 340.498,86.418C335.631,72.137 325.951,46.926 316.26,39.98C274.045,9.734 118.37,13.324 111.76,13.496C108.741,13.535 106.323,16.012 106.358,19.031C106.397,22.055 108.877,24.473 111.897,24.434L112.037,24.434C112.432,24.422 152.377,23.453 196.783,26.09C254.775,29.531 293.892,37.406 309.893,48.875C314.069,51.867 321.647,65.242 329.69,88.609C326.89,89.402 324.144,90.378 321.472,91.535C315.69,86.613 308.054,84.453 300.55,85.617C293.046,86.781 286.421,91.152 282.398,97.594C278.378,104.035 277.359,111.906 279.609,119.16C281.859,126.414 287.152,132.328 294.113,135.363C296.292,145.383 302.972,154.093 312.539,160.379L312.539,160.375C291.648,178.512 271.996,198.027 253.711,218.793C247.601,218.203 241.473,217.152 239.793,216.387C235.269,212.336 231.753,201.254 228.645,191.461C225.473,181.468 222.473,172.027 217.79,166.305C214.7,162.531 205.228,156.762 202.395,155.086L202.391,155.082C201.141,154.312 199.637,154.078 198.211,154.425C196.789,154.777 195.563,155.687 194.816,156.949C194.066,158.211 193.859,159.718 194.234,161.136C194.609,162.554 195.539,163.761 196.812,164.488C201.84,167.468 208.066,171.691 209.324,173.23C212.68,177.328 215.496,186.191 218.219,194.765C222,206.675 225.91,218.992 232.949,224.921C234.847,226.523 238.918,227.808 245.09,228.765C238.586,236.46 232.004,244.636 225.492,253.257C198.996,288.327 178.828,323.698 165.543,358.387C148.84,402.004 143.031,444.66 148.273,485.177C150.667,503.661 159.5,518.454 174.523,529.146C194.925,543.658 223.003,547.947 246.839,547.947L246.843,547.943C258.843,548.002 270.823,546.877 282.605,544.591C296.304,541.736 309.675,534.548 322.347,523.224C336.538,510.482 344.617,492.29 344.554,473.22L344.015,170.6C345.956,170.749 347.925,170.831 349.921,170.831C350.128,170.831 350.335,170.823 350.542,170.819L350.003,473.229C349.941,492.303 358.023,510.495 372.214,523.237C384.886,534.561 398.257,541.753 411.956,544.604C423.741,546.889 435.718,548.01 447.722,547.956C471.554,547.956 499.636,543.667 520.034,529.155C535.061,518.464 543.893,503.671 546.284,485.186C551.522,444.69 545.936,402.049 529.675,358.446C516.741,323.758 497.058,288.391 471.167,253.316C464.78,244.66 458.319,236.453 451.94,228.73C457.948,227.777 461.924,226.507 463.792,224.933C470.835,218.999 474.745,206.683 478.526,194.773C481.249,186.203 484.061,177.339 487.421,173.238C488.674,171.707 494.905,167.48 499.933,164.496L499.936,164.5C502.476,162.933 503.292,159.621 501.768,157.054C500.245,154.488 496.948,153.617 494.358,155.093C491.526,156.773 482.049,162.543 478.963,166.312C474.276,172.031 471.28,181.472 468.108,191.468C464.999,201.261 461.483,212.343 456.96,216.394C455.327,217.137 449.472,218.144 443.519,218.75L443.511,218.75C425.835,198.227 406.82,178.898 386.585,160.891C396.69,154.485 403.694,145.411 405.819,134.934L405.823,134.934C412.542,131.676 417.546,125.696 419.569,118.504C421.593,111.313 420.44,103.602 416.405,97.316C412.37,91.03 405.835,86.773 398.456,85.625C391.073,84.473 383.554,86.535 377.796,91.293C375.222,90.207 372.585,89.285 369.894,88.535C376.089,70.347 384.496,51.625 390.109,47.605C429.363,19.48 586.389,23.125 587.969,23.16L587.973,23.16C590.992,23.238 593.504,20.852 593.578,17.832C593.656,14.813 591.27,12.301 588.25,12.223L588.24,12.223ZM289.37,111.426C289.37,107.399 290.972,103.535 293.819,100.688C296.667,97.84 300.53,96.239 304.557,96.239C308.584,96.239 312.448,97.84 315.299,100.688C318.147,103.536 319.745,107.399 319.745,111.426C319.745,115.453 318.147,119.317 315.299,122.164C312.448,125.012 308.584,126.613 304.557,126.613C300.53,126.609 296.671,125.008 293.823,122.16C290.976,119.313 289.374,115.453 289.37,111.426L289.37,111.426ZM175.7,362.436C188.591,328.733 208.223,294.288 234.055,260.056L234.059,260.056C260.254,225.548 290.079,193.951 323.016,165.806C326.282,167.111 329.641,168.158 333.071,168.939L333.469,391.569C328.044,396.698 325.782,403.581 323.758,409.749C320.868,418.557 318.735,424.077 311.598,426.522C304.458,428.967 299.387,425.909 291.707,420.725C284.176,415.639 274.805,409.311 262.152,413.643C249.5,417.975 245.972,428.721 243.14,437.354C240.25,446.163 238.117,451.682 230.98,454.127C223.84,456.572 218.769,453.518 211.085,448.33C203.554,443.244 194.183,436.916 181.526,441.252C168.87,445.584 165.346,456.33 162.514,464.963L162.511,464.963C161.487,468.596 160.046,472.1 158.214,475.404C154.983,439.244 160.843,401.283 175.698,362.434L175.7,362.436ZM315.05,515.076C303.827,525.103 292.159,531.435 280.366,533.888C255.393,539.087 208.288,539.744 180.862,520.232C170.198,512.884 162.749,501.736 160.046,489.072C167.804,483.904 170.495,475.713 172.901,468.377C175.792,459.568 177.924,454.049 185.065,451.604C192.206,449.159 197.276,452.213 204.96,457.401C212.491,462.487 221.862,468.815 234.519,464.483C247.176,460.151 250.695,449.405 253.531,440.772C256.418,431.963 258.55,426.444 265.695,423.999C272.836,421.554 277.906,424.612 285.586,429.796C293.117,434.878 302.488,441.21 315.141,436.878C326.864,432.862 330.75,423.347 333.508,415.101L333.613,473.242L333.613,473.238C333.672,489.191 326.918,504.414 315.051,515.078L315.05,515.076ZM513.68,520.24C486.254,539.752 439.149,539.095 414.176,533.896C402.379,531.439 390.711,525.107 379.492,515.084L379.492,515.08C367.621,504.42 360.867,489.197 360.926,473.244L361.035,414.228C363.821,422.662 367.555,432.72 379.695,436.88C392.351,441.212 401.722,434.88 409.25,429.798C416.93,424.611 422,421.552 429.141,424.001C436.282,426.45 438.415,431.966 441.305,440.774C444.137,449.407 447.665,460.153 460.317,464.485C472.97,468.817 482.344,462.489 489.876,457.403C497.56,452.216 502.634,449.161 509.771,451.606C516.908,454.052 519.045,459.575 521.935,468.379C524.314,475.633 526.978,483.719 534.533,488.899C531.861,501.633 524.392,512.852 513.681,520.235L513.68,520.24ZM462.516,260.01C487.758,294.24 506.922,328.686 519.469,362.39C533.887,401.101 539.543,438.929 536.364,474.98C534.673,471.793 533.321,468.433 532.325,464.964C529.493,456.331 525.965,445.585 513.309,441.253C500.653,436.921 491.282,443.249 483.75,448.331C476.066,453.519 470.996,456.573 463.855,454.128C456.714,451.683 454.582,446.163 451.691,437.355C448.859,428.722 445.335,417.976 432.679,413.644C420.027,409.312 410.652,415.64 403.124,420.726C395.44,425.914 390.37,428.972 383.233,426.523C376.092,424.074 373.96,418.554 371.069,409.75C369.01,403.477 366.702,396.465 361.069,391.309L361.471,169.969C366.432,169.231 371.303,167.957 375.991,166.168C408.089,194.281 437.096,225.742 462.514,260.016L462.516,260.01ZM394.407,96.23C398.434,96.23 402.298,97.832 405.145,100.679C407.992,103.527 409.594,107.39 409.594,111.417C409.594,115.445 407.993,119.308 405.145,122.159C402.297,125.007 398.434,126.605 394.407,126.605C390.376,126.605 386.516,125.007 383.665,122.155C380.817,119.308 379.22,115.444 379.22,111.417C379.224,107.39 380.825,103.531 383.673,100.683C386.52,97.836 390.38,96.234 394.407,96.23L394.407,96.23ZM370.782,100.285C367.028,108.242 367.532,117.551 372.122,125.051C376.712,132.555 384.77,137.242 393.56,137.52C387.802,150.504 370.275,159.891 349.919,159.891C329.587,159.891 312.009,150.473 306.255,137.481C314.829,136.93 322.583,132.196 326.989,124.821C331.395,117.45 331.891,108.38 328.313,100.567C342.012,95.575 357.016,95.473 370.782,100.286L370.782,100.285Z" style="fill-rule:nonzero;"/>
        </g>
    </g>
</svg>
